<svg width="17" height="17" viewBox="0 0 17 17" fill="none" xmlns="http://www.w3.org/2000/svg">
<path fill-rule="evenodd" clip-rule="evenodd" d="M13.6958 14.0392C14.5033 13.2804 15.1466 12.3641 15.586 11.3468C16.0253 10.3296 16.2513 9.23305 16.25 8.125C16.25 3.6375 12.6125 0 8.12501 0C3.63751 0 5.42435e-06 3.6375 5.42435e-06 8.125C-0.00127666 9.23305 0.224728 10.3296 0.664047 11.3468C1.10337 12.3641 1.74666 13.2804 2.55417 14.0392C4.05995 15.4616 6.05363 16.2528 8.12501 16.25C10.1964 16.2528 12.1901 15.4616 13.6958 14.0392ZM3.24584 12.9683C3.8309 12.2364 4.57335 11.6456 5.41804 11.2399C6.26272 10.8342 7.18795 10.6241 8.12501 10.625C9.06206 10.6241 9.98729 10.8342 10.832 11.2399C11.6767 11.6456 12.4191 12.2364 13.0042 12.9683C12.3659 13.6131 11.6059 14.1247 10.7683 14.4734C9.93075 14.8222 9.03228 15.0012 8.12501 15C7.21773 15.0012 6.31926 14.8222 5.48169 14.4734C4.64413 14.1247 3.88415 13.6131 3.24584 12.9683ZM11.25 5.625C11.25 6.4538 10.9208 7.24866 10.3347 7.83471C9.74866 8.42076 8.95381 8.75 8.12501 8.75C7.2962 8.75 6.50135 8.42076 5.9153 7.83471C5.32925 7.24866 5.00001 6.4538 5.00001 5.625C5.00001 4.7962 5.32925 4.00134 5.9153 3.41529C6.50135 2.82924 7.2962 2.5 8.12501 2.5C8.95381 2.5 9.74866 2.82924 10.3347 3.41529C10.9208 4.00134 11.25 4.7962 11.25 5.625Z" fill="white"/>
</svg>
